<?xml version="1.0" encoding="UTF-8"?>
<svg xmlns="http://www.w3.org/2000/svg" xmlns:xlink="http://www.w3.org/1999/xlink" width="0"
    height="0" style="display: none;">
    <defs>
        <!-- Checkmark Icon -->
        <symbol id="checkmark" viewBox="0 0 16 16">
            <path
                d="M13.78 4.22a.75.75 0 010 1.06l-7.25 7.25a.75.75 0 01-1.06 0L2.22 9.28a.75.75 0 011.06-1.06L6 10.94l6.72-6.72a.75.75 0 011.06 0z"
                fill="currentColor" />
        </symbol>

        <!-- Door Icon -->
        <symbol id="door" viewBox="0 0 16 16">
            <path d="M8.5 10a.5.5 0 0 0-1 0v2a.5.5 0 0 0 1 0v-2z" />
            <path
                d="M4 1a2 2 0 0 0-2 2v10a2 2 0 0 0 2 2h8a2 2 0 0 0 2-2V3a2 2 0 0 0-2-2H4zm0 1h8a1 1 0 0 1 1 1v10a1 1 0 0 1-1 1H4a1 1 0 0 1-1-1V3a1 1 0 0 1 1-1z"
                fill="currentColor" />
        </symbol>

        <!-- Person Icon -->
        <symbol id="person" viewBox="0 0 16 16">
            <path
                d="M8 8a3 3 0 1 0 0-6 3 3 0 0 0 0 6zm2-3a2 2 0 1 1-4 0 2 2 0 0 1 4 0zm4 8c0 1-1 1-1 1H3s-1 0-1-1 1-4 6-4 6 3 6 4zm-1-.004c-.001-.246-.154-.986-.832-1.664C11.516 10.68 10.289 10 8 10c-2.29 0-3.516.68-4.168 1.332-.678.678-.83 1.418-.832 1.664h10z"
                fill="currentColor" />
        </symbol>

        <!-- Transmission Icon -->
        <symbol id="transmission" viewBox="0 0 16 16">
            <path
                d="M8 1a2 2 0 0 1 2 2v4H6V3a2 2 0 0 1 2-2zm3 6V3a3 3 0 0 0-6 0v4a2 2 0 0 0-2 2v5a2 2 0 0 0 2 2h6a2 2 0 0 0 2-2V9a2 2 0 0 0-2-2z"
                fill="currentColor" />
        </symbol>

        <!-- Fuel Icon -->
        <symbol id="fuel" viewBox="0 0 16 16">
            <path
                d="M3 2.5a.5.5 0 0 1 .5-.5h5a.5.5 0 0 1 .5.5v1a.5.5 0 0 1-.5.5h-5a.5.5 0 0 1-.5-.5v-1z" />
            <path d="M1 4v10a1 1 0 0 0 1 1h12a1 1 0 0 0 1-1V4H1zm0 1h14v9H1V5z" fill="currentColor" />
        </symbol>

        <!-- Luggage Icon -->
        <symbol id="luggage" viewBox="0 0 16 16">
            <path
                d="M4 1.5H3a2 2 0 0 0-2 2V14a2 2 0 0 0 2 2h10a2 2 0 0 0 2-2V3.5a2 2 0 0 0-2-2h-1v1h1a1 1 0 0 1 1 1V14a1 1 0 0 1-1 1H3a1 1 0 0 1-1-1V3.5a1 1 0 0 1 1-1h1v-1z"
                fill="currentColor" />
            <path
                d="M9.5 1a.5.5 0 0 1 .5.5v1a.5.5 0 0 1-.5.5h-3a.5.5 0 0 1-.5-.5v-1a.5.5 0 0 1 .5-.5h3zm-3-1A1.5 1.5 0 0 0 5 1.5v1A1.5 1.5 0 0 0 6.5 4h3A1.5 1.5 0 0 0 11 2.5v-1A1.5 1.5 0 0 0 9.5 0h-3z"
                fill="currentColor" />
        </symbol>
        <symbol id="checkmark-circle" viewBox="0 0 16 16" fill="none">
            <path
                d="M14.6668 7.39065V8.00398C14.666 9.44159 14.2005 10.8404 13.3397 11.9919C12.4789 13.1433 11.269 13.9856 9.8904 14.3932C8.51178 14.8009 7.03834 14.7519 5.68981 14.2537C4.34128 13.7555 3.18993 12.8347 2.40747 11.6287C1.62501 10.4227 1.25336 8.99602 1.34795 7.56152C1.44254 6.12702 1.9983 4.76153 2.93235 3.66869C3.8664 2.57586 5.12869 1.81423 6.53096 1.49741C7.93323 1.18059 9.40034 1.32554 10.7135 1.91065M14.6668 2.66683L8.00016 9.34016L6.00016 7.34016"
                stroke="currentColor" stroke-linecap="round" stroke-linejoin="round" />
        </symbol>
        <symbol id="warning" viewBox="0 0 16 16" fill="none">
            <path
                d="M8.00016 5.3335V8.00016M8.00016 10.6668H8.00683M14.6668 8.00016C14.6668 11.6821 11.6821 14.6668 8.00016 14.6668C4.31826 14.6668 1.3335 11.6821 1.3335 8.00016C1.3335 4.31826 4.31826 1.3335 8.00016 1.3335C11.6821 1.3335 14.6668 4.31826 14.6668 8.00016Z"
                stroke="currentColor" stroke-linecap="round" stroke-linejoin="round" />
        </symbol>
        <!-- Add on extra icon -->
        <symbol id="icon-petrol" viewBox="0 0 24 24" fill="none">
            <path stroke="currentColor" stroke-linejoin="round" stroke-width="2"
                d="M21 21V3h-1.5L15 8H6l-3 3v10h18Z" />
            <path stroke="currentColor" stroke-linecap="round" stroke-linejoin="round"
                stroke-width="2"
                d="m6 8 5-5h9M5.5 4 2 7.5m8.322 6.944c.715-.94 1.267-2.239 1.565-2.944.522.705 1.655 2.474 2.013 3.415.447 1.175-.671 2.585-2.013 2.585-1.342 0-2.46-1.88-1.566-3.056Z" />
        </symbol>
        <symbol id="icon-child" viewBox="0 0 24 24" fill="none">
            <path
                d="M7.26532 6.6837C8.32075 6.6837 9.38343 6.18916 10.0578 5.0737C11.2644 3.07916 10.0234 0.298249 7.70705 0.0200675C7.59662 0.00643111 7.41558 0.000976562 7.23274 0.000976562C7.03994 0.000976562 6.84532 0.00824929 6.72765 0.0200675C5.25222 0.178249 3.98136 1.6237 3.8836 3.08825C3.73696 5.28643 5.49119 6.6837 7.26532 6.6837Z"
                fill="currentColor" />
            <path
                d="M17.5692 13.641C16.7844 13.641 15.9145 13.8564 15.2402 14.0255C14.0716 14.3182 12.3907 15.0737 11.1461 15.0737C11.0139 15.0737 10.8872 15.0655 10.7659 15.0464C8.11195 14.6419 8.04316 11.8737 7.27467 9.84187C6.96057 9.01278 6.3179 7.36914 5.25251 7.36914C5.1973 7.36914 5.14027 7.37369 5.08324 7.38278C3.98799 7.55732 3.01402 8.7455 2.60126 9.71369C1.10501 13.2219 2.52885 18.3191 5.46161 20.7037C5.34846 21.6828 5.14299 22.6591 5.09773 23.6428C5.12217 23.7946 5.28057 23.99 5.44169 23.9991H14.8193C15.0818 23.9964 15.2212 23.791 15.2565 23.5482L14.9379 21.2182C15.3904 20.9428 15.8774 20.7364 16.3282 20.4564C18.0571 19.3828 19.7923 17.5128 19.5904 15.3146C19.4701 14.0046 18.5911 13.6391 17.5701 13.6391L17.5692 13.641ZM15.3289 18.8337C15.1605 18.9382 14.9587 19.0428 14.7442 19.1528C14.5034 19.2773 14.23 19.4173 13.9539 19.5855L12.8849 20.2355L13.0551 21.4791L13.1393 22.091H7.18777C7.18958 22.0791 7.19139 22.0682 7.1932 22.0564C7.24842 21.691 7.30454 21.3128 7.3498 20.9246L7.47018 19.881L6.65734 19.22C5.55122 18.321 4.65781 16.8328 4.20613 15.1373C3.75355 13.44 3.80514 11.7373 4.34734 10.4664C4.5148 10.0728 4.80174 9.71005 5.04432 9.48914C5.15837 9.69732 5.30773 10.0201 5.49691 10.521C5.63449 10.8855 5.75488 11.3119 5.88161 11.7637C6.14592 12.7037 6.44553 13.7701 7.04113 14.7037C7.84131 15.9573 8.99812 16.7082 10.4799 16.9337C10.6917 16.9655 10.9153 16.9819 11.1452 16.9819C12.292 16.9819 13.5023 16.581 14.5704 16.2264C14.9913 16.0864 15.3895 15.9546 15.6991 15.8773C16.2522 15.7391 17.0089 15.5491 17.5683 15.5491C17.619 15.5491 17.6633 15.551 17.7004 15.5537C17.7738 16.8391 16.4757 18.1201 15.3271 18.8328L15.3289 18.8337Z"
                fill="currentColor" />
            <path
                d="M9.8758 7.65382C9.2277 7.67928 8.49451 8.02291 8.05369 8.49746L8.04102 8.55746C8.3189 9.20291 8.56149 9.86382 8.78054 10.532C9.18334 11.7602 9.28925 13.4447 10.7755 13.8211C11.8409 14.0902 13.2376 13.2093 14.3093 13.0429L14.4207 12.9656L12.9335 10.0702L16.6365 7.27837C17.7146 6.14473 16.8402 4.27928 15.2987 4.38837C14.9493 4.41291 14.7031 4.54019 14.4161 4.72019C13.8441 5.07928 10.5963 7.69655 10.3447 7.702C10.2143 7.70473 10.0595 7.64655 9.87671 7.65382H9.8758Z"
                fill="currentColor" />
            <path
                d="M22.3953 12.0783C22.0187 11.7701 21.7028 11.7274 21.2448 11.6419C20.1568 11.4383 18.942 11.2683 17.8404 11.1265C17.5345 11.0874 17.2665 11.0347 16.9977 11.0347C16.7696 11.0347 16.5397 11.0729 16.2862 11.1892C15.639 11.4865 15.401 12.2019 15.0742 12.7819C15.6553 12.7365 16.2392 12.5447 16.8284 12.4828C17.0556 12.4592 17.2865 12.4456 17.5173 12.4456C18.7474 12.4456 19.9694 12.8256 20.5053 14.0692C20.5759 14.2319 20.7379 14.9619 20.7732 14.9947C20.8329 15.0483 20.9687 15.0692 21.1307 15.0692C21.4421 15.0692 21.8521 14.9919 22.0069 14.921C23.1293 14.411 23.3565 12.8665 22.3953 12.0783Z"
                fill="currentColor" />
        </symbol>
        <symbol id="icon-mileage" viewBox="0 0 24 24" fill="none">
            <path
                d="M18.1777 8C23.2737 8 23.2737 16 18.1777 16C13.0827 16 11.0447 8 5.43875 8C0.85375 8 0.85375 16 5.43875 16C11.0447 16 13.0828 8 18.1788 8H18.1777Z"
                stroke="currentColor" stroke-width="2" stroke-linecap="round"
                stroke-linejoin="round" />
        </symbol>
        <symbol id="icon-driver" viewBox="0 0 24 24" fill="none">
            <g fill="currentColor" clip-path="url(#clip0_54639_854)">
                <path
                    d="M10.524 9.193c.387.078.77.116 1.145.116 1.319 0 2.54-.473 3.461-1.364 1.38-1.334 1.81-3.297 1.097-5C15.631 1.518 14.238.43 12.592.102c-1.524-.304-3.062.075-4.22 1.04a4.588 4.588 0 0 0-1.444 4.943c.519 1.619 1.83 2.75 3.596 3.107ZM8.767 4.409c.08-1.06.837-2.037 1.882-2.431.324-.122.655-.183.984-.183.573 0 1.142.184 1.662.546.896.623 1.334 1.704 1.143 2.82A2.782 2.782 0 0 1 12.6 7.348c-1.091.382-1.924.088-2.43-.226-.92-.571-1.483-1.662-1.403-2.713Zm6.051 5.909H8.475c-2.727 0-4.946 2.225-4.946 4.96v2.364c0 .582.487 1.053 1.087 1.053h1.31c.073 1.538.803 2.97 2.04 3.978a5.906 5.906 0 0 0 3.738 1.328c.374 0 .752-.036 1.127-.107 2.595-.493 4.506-2.65 4.66-5.197l.159-.001h.104c.056 0 .112 0 .17.002l.11.002v-.004h.643c.6 0 1.087-.472 1.087-1.053v-2.364c0-2.735-2.219-4.96-4.946-4.96v-.001ZM6.805 15.39c-.258.4-.425.79-.588 1.198h-.513v-1.311c0-1.574 1.243-2.855 2.772-2.855h6.343c1.528 0 2.772 1.28 2.772 2.854v1.312h-.412c-.411-1.257-1.362-2.383-2.619-3.075a5.94 5.94 0 0 0-4.271-.56c-1.46.351-2.697 1.217-3.484 2.437Zm8.465 2.029h-1.63c-.363-.702-1.097-1.143-1.939-1.143-.84 0-1.574.44-1.938 1.143H8.04a3.67 3.67 0 0 1 1.303-1.912 3.965 3.965 0 0 1 3.282-.688c1.241.285 2.296 1.268 2.693 2.442-.02.051-.037.103-.05.157Zm-4.583 4.521c-1.288-.367-2.307-1.365-2.651-2.597h1.713c.214.443.597.732.939.93v1.668Zm1.164-3.436c-.013.02-.05.077-.204.059-.117-.015-.13-.124-.13-.171 0-.05.011-.168.144-.187.134-.018.17.034.185.056a.24.24 0 0 1 .005.243Zm.865 3.435v-1.662c.34-.192.722-.477.938-.933h1.714c-.342 1.226-1.361 2.223-2.652 2.595Z" />
            </g>
            <defs>
                <clipPath id="clip0_54639_854">
                    <path fill="currentColor" d="M0 0h24v24H0z" />
                </clipPath>
            </defs>
        </symbol>
        <symbol id="icon-roadside" viewBox="0 0 24 24" fill="none">
            <path
                d="M21 18V12C21 7.02944 16.9706 3 12 3C7.02944 3 3 7.02944 3 12V18M5.5 21C4.11929 21 3 19.8807 3 18.5V16.5C3 15.1193 4.11929 14 5.5 14C6.88071 14 8 15.1193 8 16.5V18.5C8 19.8807 6.88071 21 5.5 21ZM18.5 21C17.1193 21 16 19.8807 16 18.5V16.5C16 15.1193 17.1193 14 18.5 14C19.8807 14 21 15.1193 21 16.5V18.5C21 19.8807 19.8807 21 18.5 21Z"
                stroke="currentColor" stroke-width="2" stroke-linecap="round"
                stroke-linejoin="round" />
        </symbol>
        <symbol id="icon-gps" viewBox="0 0 24 24" fill="none">
            <path
                d="M3.41345 10.7445C2.81811 10.513 2.52043 10.3972 2.43353 10.2304C2.35819 10.0858 2.35809 9.91354 2.43326 9.76886C2.51997 9.60195 2.8175 9.48584 3.41258 9.25361L20.3003 2.66327C20.8375 2.45364 21.1061 2.34883 21.2777 2.40616C21.4268 2.45596 21.5437 2.57292 21.5935 2.72197C21.6509 2.8936 21.5461 3.16219 21.3364 3.69937L14.7461 20.5871C14.5139 21.1822 14.3977 21.4797 14.2308 21.5664C14.0862 21.6416 13.9139 21.6415 13.7693 21.5662C13.6025 21.4793 13.4867 21.1816 13.2552 20.5862L10.6271 13.8282C10.5801 13.7074 10.5566 13.647 10.5203 13.5961C10.4881 13.551 10.4487 13.5115 10.4036 13.4794C10.3527 13.4431 10.2923 13.4196 10.1715 13.3726L3.41345 10.7445Z"
                stroke="currentColor" stroke-width="2" stroke-linecap="round"
                stroke-linejoin="round" />
        </symbol>
        <symbol id="icon-border" viewBox="0 0 24 24" fill="none">
            <path
                d="M15 2.4578C14.053 2.16035 13.0452 2 12 2C6.47715 2 2 6.47715 2 12C2 17.5228 6.47715 22 12 22C17.5228 22 22 17.5228 22 12C22 10.2847 21.5681 8.67022 20.8071 7.25945M17 5.75H17.005M10.5001 21.8883L10.5002 19.6849C10.5002 19.5656 10.5429 19.4502 10.6205 19.3596L13.1063 16.4594C13.3106 16.2211 13.2473 15.8556 12.9748 15.6999L10.1185 14.0677C10.0409 14.0234 9.97663 13.9591 9.93234 13.8814L8.07046 10.6186C7.97356 10.4488 7.78657 10.3511 7.59183 10.3684L2.06418 10.8607M21 6C21 8.20914 19 10 17 12C15 10 13 8.20914 13 6C13 3.79086 14.7909 2 17 2C19.2091 2 21 3.79086 21 6ZM17.25 5.75C17.25 5.88807 17.1381 6 17 6C16.8619 6 16.75 5.88807 16.75 5.75C16.75 5.61193 16.8619 5.5 17 5.5C17.1381 5.5 17.25 5.61193 17.25 5.75Z"
                stroke="currentColor" stroke-width="2" stroke-linecap="round"
                stroke-linejoin="round" />
        </symbol>
        <symbol id="icon-wifi" viewBox="0 0 24 24" fill="none">
            <path
                d="M12 19.5H12.01M22.8064 8.70076C19.9595 6.09199 16.1656 4.5 11.9999 4.5C7.83414 4.5 4.04023 6.09199 1.19336 8.70076M4.73193 12.243C6.67006 10.5357 9.21407 9.5 12 9.5C14.7859 9.5 17.3299 10.5357 19.268 12.243M15.6983 15.7751C14.6792 14.9763 13.3952 14.5 11.9999 14.5C10.5835 14.5 9.28172 14.9908 8.25537 15.8116"
                stroke="currentColor" stroke-width="2" stroke-linecap="round"
                stroke-linejoin="round" />
        </symbol>
        <symbol id="icon-plus" viewBox="0 0 24 25">
            <path d="M12 5.5V19.5M5 12.5H19" stroke="currentColor" stroke-width="2"
                stroke-linecap="round" stroke-linejoin="round" />
        </symbol>
        <symbol id="icon-minus" viewBox="0 0 24 25">
            <path d="M5 12.5H19" stroke="currentColor" stroke-width="2" stroke-linecap="round"
                stroke-linejoin="round" />
        </symbol>

        <!-- Background hero image -->
        <symbol id="icon-hero-bg" viewBox="0 0 621 482" fill="none">
            <g filter="url(#filter0_f_224_5420)">
                <ellipse cx="310.5" cy="241" rx="230.5" ry="161" fill="url(#paint0_radial_224_5420)"
                    fill-opacity="0.35" />
            </g>
            <defs>
                <filter id="filter0_f_224_5420" x="0" y="0" width="621" height="482"
                    filterUnits="userSpaceOnUse" color-interpolation-filters="sRGB">
                    <feFlood flood-opacity="0" result="BackgroundImageFix" />
                    <feBlend mode="normal" in="SourceGraphic" in2="BackgroundImageFix"
                        result="shape" />
                    <feGaussianBlur stdDeviation="40" result="effect1_foregroundBlur_224_5420" />
                </filter>
                <radialGradient id="paint0_radial_224_5420" cx="0" cy="0" r="1"
                    gradientUnits="userSpaceOnUse"
                    gradientTransform="translate(310.5 241) rotate(90) scale(161 230.5)">
                    <stop stop-color="white" />
                    <stop offset="1" stop-color="white" stop-opacity="0" />
                </radialGradient>
            </defs>
        </symbol>

        <!-- Logo -->
        <symbol id="icon-logo" viewBox="0 0 126 16" fill="none">
            <g fill="currentColor" clip-path="url(#clip0_54639_600)">
                <path
                    d="M47.792 5.165h-11.14v2.026h11.14c-.026.08.08.175.08.203v3.24a.862.862 0 0 1-.12.121h-11.1v2.026h11.14v3.644H33.1c.026-.08-.08-.175-.08-.203v-14.5c0-.008.112-.121.12-.121h14.613c.008 0 .12.112.12.121v3.24c0 .026-.106.124-.08.203Zm76.09-3.565c.782.111 1.727 1.012 1.955 1.764.21.693.191 4.316.095 5.153-.113.983-1.079 2.063-2.069 2.217-.296.046-.6-.02-.871.02-.111.016-.139-.046-.119.122l2.825 5.549h-3.754l-3.149-5.67h-3.593v5.469c0 .026-.107.123-.081.203h-3.472V1.6h12.233Zm-1.494 3.565h-7.184v2.026h7.184V5.165ZM88.804 6.461h-3.472V5.166h-8.153v7.614h8.153v-1.296h3.472c.3 2.072.156 4.61-2.391 4.932-3.291-.156-6.824.242-10.086.013-1.66-.116-2.6-1.154-2.704-2.794-.202-3.128.15-6.481.014-9.633.113-1.187 1.071-2.292 2.288-2.403 3.383-.31 7.23.243 10.662 0 2.398.395 2.501 2.894 2.217 4.864V6.46Zm-74.03-1.296H3.553v2.026h11.221c-.026.08.08.175.08.203v3.24a.862.862 0 0 1-.12.121H3.674a.786.786 0 0 0-.121.122v5.548H.12a.781.781 0 0 1-.12-.122V1.723C0 1.714.113 1.6.121 1.6h14.613c.008 0 .12.112.12.121v3.24c0 .026-.106.124-.08.203Zm39.8-3.565c.98 1.592 2.083 3.112 3.19 4.615l3.31-4.614h4.239l-5.06 7.41 5.06 7.412h-4.24l-3.31-4.696-3.31 4.696h-4.118c-.01 0-.162-.117-.082-.16l5.034-7.317-5.073-7.345h4.36Zm36.773 14.824 6.698-14.745 4.042-.085.126.057 6.981 14.608c.071.05-.076.166-.088.166h-3.754l-5.207-10.611L95.1 16.425h-3.755l.002-.001ZM20.748 1.6v11.18h9.81a.78.78 0 0 1 .12.121v3.402a.862.862 0 0 1-.12.122h-13.36V1.601h3.552-.002Zm46.985 14.823V1.601h3.431c.008 0 .121.112.121.121v14.58a.862.862 0 0 1-.12.121h-3.432Z" />
            </g>
            <defs>
                <clipPath id="clip0_54639_600">
                    <path fill="currentColor" d="M0 .5h126v15H0z" />
                </clipPath>
            </defs>
        </symbol>
        <symbol id="icon-phone" viewBox="0 0 24 24" fill="none">
            <path
                d="M8.38028 8.85335C9.07627 10.303 10.0251 11.6616 11.2266 12.8632C12.4282 14.0648 13.7869 15.0136 15.2365 15.7096C15.3612 15.7694 15.4235 15.7994 15.5024 15.8224C15.7828 15.9041 16.127 15.8454 16.3644 15.6754C16.4313 15.6275 16.4884 15.5704 16.6027 15.4561C16.9523 15.1064 17.1271 14.9316 17.3029 14.8174C17.9658 14.3864 18.8204 14.3864 19.4833 14.8174C19.6591 14.9316 19.8339 15.1064 20.1835 15.4561L20.3783 15.6509C20.9098 16.1824 21.1755 16.4481 21.3198 16.7335C21.6069 17.301 21.6069 17.9713 21.3198 18.5389C21.1755 18.8242 20.9098 19.09 20.3783 19.6214L20.2207 19.779C19.6911 20.3087 19.4263 20.5735 19.0662 20.7757C18.6667 21.0001 18.0462 21.1615 17.588 21.1601C17.1751 21.1589 16.8928 21.0788 16.3284 20.9186C13.295 20.0576 10.4326 18.4332 8.04466 16.0452C5.65668 13.6572 4.03221 10.7948 3.17124 7.76144C3.01103 7.19699 2.93092 6.91477 2.9297 6.50182C2.92833 6.0436 3.08969 5.42311 3.31411 5.0236C3.51636 4.66357 3.78117 4.39876 4.3108 3.86913L4.46843 3.7115C4.99987 3.18006 5.2656 2.91433 5.55098 2.76999C6.11854 2.48292 6.7888 2.48292 7.35636 2.76999C7.64174 2.91433 7.90747 3.18006 8.43891 3.7115L8.63378 3.90637C8.98338 4.25597 9.15819 4.43078 9.27247 4.60655C9.70347 5.26945 9.70347 6.12403 9.27247 6.78692C9.15819 6.96269 8.98338 7.1375 8.63378 7.4871C8.51947 7.60142 8.46231 7.65857 8.41447 7.72538C8.24446 7.96281 8.18576 8.30707 8.26748 8.58743C8.29048 8.66632 8.32041 8.72866 8.38028 8.85335Z"
                stroke="currentColor"
                stroke-width="1.5"
                stroke-linecap="round"
                stroke-linejoin="round"
            />
        </symbol>
        <symbol id="icon-chevron-down" viewBox="0 0 24 24" fill="none">
            <path
                d="M6 9L12 15L18 9"
                stroke="currentColor"
                stroke-width="2"
                stroke-linecap="round"
                stroke-linejoin="round"
            />
        </symbol>
        <symbol id="icon-sign-in" viewBox="0 0 24 24" fill="none">
            <path
                d="M6 17C6 17.93 6 18.395 6.10222 18.7765C6.37962 19.8117 7.18827 20.6204 8.22354 20.8978C8.60504 21 9.07003 21 10 21H16.2C17.8802 21 18.7202 21 19.362 20.673C19.9265 20.3854 20.3854 19.9265 20.673 19.362C21 18.7202 21 17.8802 21 16.2V7.8C21 6.11984 21 5.27976 20.673 4.63803C20.3854 4.07354 19.9265 3.6146 19.362 3.32698C18.7202 3 17.8802 3 16.2 3H10C9.07003 3 8.60504 3 8.22354 3.10222C7.18827 3.37962 6.37962 4.18827 6.10222 5.22354C6 5.60504 6 6.07003 6 7M12 8L16 12M16 12L12 16M16 12H3"
                stroke="currentColor"
                stroke-width="1.5"
                stroke-linecap="round"
                stroke-linejoin="round"
            />
        </symbol>
        <symbol id="icon-doors" viewBox="0 0 16 16" fill="none">
            <path
                d="M11.9262 5.9997V8.69692C12.6715 9.38994 13.4399 10.0679 14.1882 10.7608C14.3635 10.923 14.8618 11.3349 14.95 11.5066C15.1584 11.9129 14.6713 12.3343 14.2403 12.1154C13.4721 11.4561 12.7428 10.7551 11.9902 10.0794L11.9262 10.0504V13.2931C11.9262 14.111 10.8667 14.9902 9.97486 14.9785C8.68431 14.9253 7.33033 15.0464 6.04726 14.9785C5.19921 14.9337 4.44128 14.4286 4.17539 13.688C4.14421 13.6011 4.07481 13.374 4.07481 13.2929V10.0502L4.01074 10.0793L1.77817 12.1117C1.28549 12.355 0.760552 11.8294 1.11976 11.4132L4.07481 8.71602V5.99931L4.01074 6.02836L1.7645 8.06765C1.32606 8.27916 0.827824 7.85146 1.05826 7.44247C2.03231 6.49856 3.06744 5.60144 4.06392 4.67468C4.09809 3.39314 3.87961 2.27865 4.8133 1.21057C5.82281 0.0557306 7.16141 -0.0620143 8.69371 0.021031C10.2061 0.103101 11.5334 1.12382 11.8476 2.47827C12.0139 3.19605 11.8756 3.94638 11.9373 4.67507L14.8071 7.27482C15.2605 7.66295 14.8289 8.30275 14.254 8.07194C13.4764 7.41615 12.7482 6.70598 11.9905 6.02894L11.9264 5.9999L11.9262 5.9997ZM10.9017 4.32476C10.8814 3.46799 11.0465 2.67322 10.4925 1.92327C9.75447 0.924587 8.56279 0.881894 7.34998 0.955777C6.2888 1.0203 5.37176 1.74003 5.15201 2.68862C5.03156 3.20872 5.13194 3.79257 5.09905 4.32476C5.53941 3.99668 6.04811 3.78887 6.62323 3.75904C7.59237 3.70894 8.63626 3.78068 9.60818 3.78224C10.097 3.84267 10.5231 4.04639 10.9017 4.32476ZM6.60914 4.70061C5.6951 4.80841 5.14817 5.58311 5.09776 6.37848C5.01021 7.75964 5.1661 9.21702 5.09776 10.6062C5.13941 11.0557 5.43049 11.5049 5.96311 11.5497L10.0385 11.5507C10.5528 11.5053 10.8646 11.067 10.9026 10.6257C10.8231 9.22443 11.0053 7.73001 10.9026 6.33968C10.8438 5.54373 10.2392 4.74935 9.31325 4.69398C8.43658 4.64154 7.49221 4.73044 6.60892 4.70061H6.60914ZM10.9019 12.2708C10.6292 12.3889 10.3655 12.4698 10.0603 12.486C8.70716 12.5572 7.28015 12.4301 5.91933 12.486C5.62889 12.4671 5.35874 12.3829 5.09883 12.271V13.235C5.09883 13.6658 5.67951 14.0184 6.11133 14.0442C7.3393 14.1171 8.6527 13.9869 9.88965 14.0442C10.3287 14.0654 10.9021 13.6184 10.9021 13.2155V12.271L10.9019 12.2708Z"
                fill="currentColor" />
        </symbol>
        <symbol id="icon-luggage" viewBox="0 0 16 16" fill="none">
            <path
                d="M5.33317 14.6668V13.3335M6.33317 10.0002V4.66683M10.6665 14.6668V13.3335M9.6665 10.0002V4.66683M5.8665 13.3335H10.1332C11.2533 13.3335 11.8133 13.3335 12.2412 13.1155C12.6175 12.9238 12.9234 12.6178 13.1152 12.2415C13.3332 11.8137 13.3332 11.2536 13.3332 10.1335V4.5335C13.3332 3.41339 13.3332 2.85334 13.1152 2.42552C12.9234 2.04919 12.6175 1.74323 12.2412 1.55148C11.8133 1.3335 11.2533 1.3335 10.1332 1.3335H5.8665C4.7464 1.3335 4.18635 1.3335 3.75852 1.55148C3.3822 1.74323 3.07624 2.04919 2.88449 2.42552C2.6665 2.85334 2.6665 3.41339 2.6665 4.5335V10.1335C2.6665 11.2536 2.6665 11.8137 2.88449 12.2415C3.07624 12.6178 3.3822 12.9238 3.75852 13.1155C4.18635 13.3335 4.7464 13.3335 5.8665 13.3335Z"
                stroke="currentColor" stroke-linecap="round" stroke-linejoin="round" />
        </symbol>
        <symbol id="icon-gearbox" viewBox="0 0 16 16" fill="none">
            <path
                d="M3.33333 5.33317C2.97971 5.33317 2.64057 5.19269 2.39052 4.94265C2.14048 4.6926 2 4.35346 2 3.99984C2 3.64622 2.14048 3.30708 2.39052 3.05703C2.64057 2.80698 2.97971 2.6665 3.33333 2.6665C3.68696 2.6665 4.02609 2.80698 4.27614 3.05703C4.52619 3.30708 4.66667 3.64622 4.66667 3.99984C4.66667 4.35346 4.52619 4.6926 4.27614 4.94265C4.02609 5.19269 3.68696 5.33317 3.33333 5.33317ZM3.33333 5.33317V10.6665M8 5.33317C7.64638 5.33317 7.30724 5.19269 7.05719 4.94265C6.80714 4.6926 6.66667 4.35346 6.66667 3.99984C6.66667 3.64622 6.80714 3.30708 7.05719 3.05703C7.30724 2.80698 7.64638 2.6665 8 2.6665C8.35362 2.6665 8.69276 2.80698 8.94281 3.05703C9.19286 3.30708 9.33333 3.64622 9.33333 3.99984C9.33333 4.35346 9.19286 4.6926 8.94281 4.94265C8.69276 5.19269 8.35362 5.33317 8 5.33317ZM8 5.33317V10.6665M3.33333 10.6665C3.68696 10.6665 4.02609 10.807 4.27614 11.057C4.52619 11.3071 4.66667 11.6462 4.66667 11.9998C4.66667 12.3535 4.52619 12.6926 4.27614 12.9426C4.02609 13.1927 3.68696 13.3332 3.33333 13.3332C2.97971 13.3332 2.64057 13.1927 2.39052 12.9426C2.14048 12.6926 2 12.3535 2 11.9998C2 11.6462 2.14048 11.3071 2.39052 11.057C2.64057 10.807 2.97971 10.6665 3.33333 10.6665ZM8 10.6665C8.35362 10.6665 8.69276 10.807 8.94281 11.057C9.19286 11.3071 9.33333 11.6462 9.33333 11.9998C9.33333 12.3535 9.19286 12.6926 8.94281 12.9426C8.69276 13.1927 8.35362 13.3332 8 13.3332C7.64638 13.3332 7.30724 13.1927 7.05719 12.9426C6.80714 12.6926 6.66667 12.3535 6.66667 11.9998C6.66667 11.6462 6.80714 11.3071 7.05719 11.057C7.30724 10.807 7.64638 10.6665 8 10.6665ZM11.3333 3.99984C11.3333 4.35346 11.4738 4.6926 11.7239 4.94265C11.9739 5.19269 12.313 5.33317 12.6667 5.33317C13.0203 5.33317 13.3594 5.19269 13.6095 4.94265C13.8595 4.6926 14 4.35346 14 3.99984C14 3.64622 13.8595 3.30708 13.6095 3.05703C13.3594 2.80698 13.0203 2.6665 12.6667 2.6665C12.313 2.6665 11.9739 2.80698 11.7239 3.05703C11.4738 3.30708 11.3333 3.64622 11.3333 3.99984Z"
                stroke="currentColor" stroke-linecap="round" stroke-linejoin="round" />
            <path
                d="M12.6668 5.33301V6.66634C12.6668 7.01996 12.5264 7.3591 12.2763 7.60915C12.0263 7.8592 11.6871 7.99967 11.3335 7.99967H3.3335"
                stroke="currentColor" stroke-linecap="round" stroke-linejoin="round" />
        </symbol>

        <symbol id="icon-passengers" viewBox="0 0 16 16" fill="none">
            <path
                d="M14.6668 14V12.6667C14.6668 11.4241 13.817 10.38 12.6668 10.084M10.3335 2.19384C11.3108 2.58943 12.0002 3.54754 12.0002 4.66667C12.0002 5.78579 11.3108 6.7439 10.3335 7.13949M11.3335 14C11.3335 12.7575 11.3335 12.1362 11.1305 11.6462C10.8599 10.9928 10.3407 10.4736 9.68732 10.203C9.19726 10 8.57601 10 7.3335 10H5.3335C4.09099 10 3.46973 10 2.97967 10.203C2.32627 10.4736 1.80713 10.9928 1.53648 11.6462C1.3335 12.1362 1.3335 12.7575 1.3335 14M9.00016 4.66667C9.00016 6.13943 7.80626 7.33333 6.3335 7.33333C4.86074 7.33333 3.66683 6.13943 3.66683 4.66667C3.66683 3.19391 4.86074 2 6.3335 2C7.80626 2 9.00016 3.19391 9.00016 4.66667Z"
                stroke="currentColor" stroke-linecap="round" stroke-linejoin="round" />
        </symbol>
        <svg id="icon-burger-menu" viewBox="0 0 24 24" fill="none">
            <path d="M3 12H21M3 6H21M3 18H21" stroke="currentColor" stroke-width="1.5"
                stroke-linecap="round" stroke-linejoin="round" />
        </svg>
    </defs>
</svg> 